<svg id="Laag_1" data-name="Laag 1" xmlns="http://www.w3.org/2000/svg" viewBox="0 0 3547.46 2268.71"><defs><style>.cls-1,.cls-10,.cls-7{fill:#e5e4e4;}.cls-2{fill:none;stroke-width:2px;}.cls-10,.cls-2,.cls-5,.cls-6,.cls-7{stroke:#1d1d1b;stroke-miterlimit:10;}.cls-3{fill:#b56a19;}.cls-4{fill:#bc8849;}.cls-5{fill:#c1e3e3;}.cls-6{fill:#e8f4f5;}.cls-7{stroke-width:4px;}.cls-8{fill:#cccaca;}.cls-9{fill:#b29e8d;}.cls-10{stroke-width:5px;}.cls-11{fill:#b26316;}</style></defs><title>kas</title><rect class="cls-1" x="0.85" width="3544.34" height="2267.72"/><line class="cls-2" x1="386.92" y1="1637.48" x2="0.85" y2="2268.19"/><line class="cls-2" x1="382.18" x2="386.92" y2="1637.48"/><rect class="cls-3" x="524.91" y="202.46" width="2764.68" height="1435.02" rx="88.02" ry="88.02"/><line class="cls-2" x1="386.92" y1="1637.48" x2="3544.16" y2="1637.48"/><rect class="cls-4" x="469.61" y="248.03" width="2764.68" height="1435.02" rx="88.02" ry="88.02"/><polygon class="cls-5" points="60.38 387 60.38 946.32 302.43 695.23 302.43 266.03 60.38 387"/><polygon class="cls-5" points="60.38 1008.15 60.38 1497.47 302.43 1146.37 302.43 757.18 60.38 1008.15"/><path class="cls-6" d="M290.17,554.92C258.76,628.36,193,567.29,193,567.29s-43.69,87.66-92.5,38.89S113.8,501,113.8,501C66.42,415.66,161.19,389.6,161.19,389.6s54.49-9.48,71.07,42.64c0,0,6-125.56,69.32-104.24V564Z" transform="translate(0.85 0)"/><line class="cls-1" x1="554.38" y1="224.76" x2="504.29" y2="266.03"/><polygon class="cls-7" points="3544.16 2066.92 2455.98 2066.92 2637.15 1709.98 3472.45 1709.98 3544.16 2066.92"/><polygon class="cls-8" points="2694.7 2022.73 2530.57 2022.73 2664.05 1740.58 2774.78 1740.58 2694.7 2022.73"/><polygon class="cls-8" points="2899.37 2022.73 2748.6 2022.73 2828.68 1740.58 2952.76 1740.58 2899.37 2022.73"/><polygon class="cls-8" points="3194.23 2022.73 3345 2022.73 3264.92 1740.58 3140.84 1740.58 3194.23 2022.73"/><polygon class="cls-8" points="3143.39 2022.73 2965.92 2022.73 2992.62 1740.58 3104.68 1740.58 3143.39 2022.73"/><polygon class="cls-8" points="3398.91 2022.73 3544.16 2022.73 3429.55 1740.58 3318.82 1740.58 3398.91 2022.73"/><polygon class="cls-1" points="3535.52 1930.87 3527.16 1980.88 3441.85 1711.98 3472.51 1711.98 3535.52 1930.87"/><path class="cls-9" d="M3332,1794s49.83,34.68,99.59,0" transform="translate(0.85 0)"/><path class="cls-9" d="M3253.43,1030.48S3332,1044.71,3332,1258.1V1794h99.59V1134.09s-.61-226.91-178.14-226.91C3253.43,907.19,3234.11,948.61,3253.43,1030.48Z" transform="translate(0.85 0)"/><line class="cls-10" x1="3545.16" y1="1879.95" x2="3471.42" y2="1709.99"/><polygon class="cls-1" points="3523.76 1972.41 3529.02 1985.45 3532.68 1981.15 3523.76 1972.41"/><polyline class="cls-1" points="3520.95 2022.73 3544.16 2022.73 3544.16 2066.54 3542.86 2066.54"/><path class="cls-11" d="M652.84,539.81h399.57V678.91c0,132.48-58.49,239.87-130.64,239.87H783.49c-72.15,0-130.64-107.39-130.64-239.87Z" transform="translate(0.85 0)"/><path class="cls-11" d="M1166.26,539.81h399.57V678.91c0,132.48-58.49,239.87-130.64,239.87H1296.9c-72.15,0-130.64-107.39-130.64-239.87Z" transform="translate(0.85 0)"/><path class="cls-11" d="M1686.61,539.81h399.57V678.91c0,132.48-58.49,239.87-130.64,239.87H1817.25c-72.15,0-130.64-107.39-130.64-239.87Z" transform="translate(0.85 0)"/><path class="cls-11" d="M2199.91,539.81h399.57V678.91c0,132.48-58.49,239.87-130.64,239.87H2330.56c-72.15,0-130.64-107.39-130.64-239.87Z" transform="translate(0.85 0)"/><path class="cls-11" d="M2712.28,539.81h399.57V678.91c0,132.48-58.49,239.87-130.64,239.87H2842.92c-72.15,0-130.64-107.39-130.64-239.87Z" transform="translate(0.85 0)"/><path class="cls-11" d="M652.84,1215.31h399.57V1354.4c0,132.48-58.49,239.87-130.64,239.87H783.49c-72.15,0-130.64-107.39-130.64-239.87Z" transform="translate(0.85 0)"/><path class="cls-11" d="M1166.26,1215.31h399.57V1354.4c0,132.48-58.49,239.87-130.64,239.87H1296.9c-72.15,0-130.64-107.39-130.64-239.87Z" transform="translate(0.85 0)"/><path class="cls-11" d="M1686.61,1215.31h399.57V1354.4c0,132.48-58.49,239.87-130.64,239.87H1817.25c-72.15,0-130.64-107.39-130.64-239.87Z" transform="translate(0.85 0)"/><path class="cls-11" d="M2199.91,1215.31h399.57V1354.4c0,132.48-58.49,239.87-130.64,239.87H2330.56c-72.15,0-130.64-107.39-130.64-239.87Z" transform="translate(0.85 0)"/><path class="cls-11" d="M2712.28,1215.31h399.57V1354.4c0,132.48-58.49,239.87-130.64,239.87H2842.92c-72.15,0-130.64-107.39-130.64-239.87Z" transform="translate(0.85 0)"/><path class="cls-11" d="M4627.91,1185.31" transform="translate(0.85 0)"/></svg>