<svg id="Laag_1" data-name="Laag 1" xmlns="http://www.w3.org/2000/svg" viewBox="0 0 3545.11 2268.83"><defs><style>.cls-1{fill:#e5e4e4;}.cls-2{fill:none;stroke-width:2px;}.cls-2,.cls-3,.cls-4{stroke:#1d1d1b;stroke-miterlimit:10;}.cls-3{fill:#c1e3e3;}.cls-4{fill:#e8f4f5;}.cls-5{fill:#adadad;}.cls-6{fill:#b7b7b7;}.cls-7{fill:#4973ae;}.cls-8{fill:#b29e8d;}</style></defs><title>viskwekerij</title><rect class="cls-1" x="0.77" width="3544.34" height="2268.18"/><line class="cls-2" x1="386.84" y1="1807.49" x2="3544.08" y2="1807.49"/><line class="cls-2" x1="0.77" y1="2268.18" x2="386.84" y2="1807.49"/><line class="cls-2" x1="382.09" y1="0.23" x2="386.84" y2="1807.49"/><polygon class="cls-3" points="60.29 424.88 60.29 1084.21 302.34 833.12 302.34 473.93 60.29 424.88"/><polygon class="cls-3" points="60.29 1146.04 60.29 1635.36 302.34 1284.26 302.34 895.07 60.29 1146.04"/><path class="cls-4" d="M289.65-1631.17c-31.41,73.44-97.13,12.37-97.13,12.37s-43.69,87.66-92.5,38.89,13.27-105.22,13.27-105.22c-47.38-85.29,47.38-111.35,47.38-111.35s54.49-9.48,71.07,42.64c0,0,6-125.56,69.32-104.24v236Z" transform="translate(1.28 2373.99)"/><rect class="cls-5" x="1069.85" y="374.35" width="1862.87" height="1519.49" rx="114.43" ry="114.43"/><rect class="cls-6" x="1012.6" y="431.48" width="1862.87" height="1519.49" rx="114.43" ry="114.43"/><rect class="cls-7" x="1116.44" y="523.44" width="1652.68" height="1335.56" rx="91.27" ry="91.27"/><path class="cls-8" d="M3042.7-879.27h87.82a0,0,0,0,1,0,0v378.1a25.12,25.12,0,0,1-25.12,25.12h-37.59a25.12,25.12,0,0,1-25.12-25.12v-378.1A0,0,0,0,1,3042.7-879.27Z" transform="translate(2410.23 -1390.28) rotate(90)"/><rect class="cls-8" x="3332.75" y="37.31" width="99.59" height="1564.87"/><path class="cls-8" d="M3288.21-722.72s43.25.93,43.25-67.14H3431V-702s-.35,65.62-142.83,68" transform="translate(1.28 2373.99)"/></svg>