<?xml version="1.0" encoding="utf-8"?>
<!-- Generator: Adobe Illustrator 22.1.0, SVG Export Plug-In . SVG Version: 6.00 Build 0)  -->
<svg version="1.1" id="Layer_1" xmlns="http://www.w3.org/2000/svg" xmlns:xlink="http://www.w3.org/1999/xlink" x="0px" y="0px"
	 viewBox="0 0 162 399.2" style="enable-background:new 0 0 162 399.2;" xml:space="preserve">
<style type="text/css">
	.st0{fill:#7DA81D;}
	.st1{fill:#469315;}
</style>
<path class="st0" d="M85.3,371.1c0,1.8-1.9,3.2-4.3,3.2l0,0c-2.4,0-4.3-1.4-4.3-3.2V99.3c0-1.8,1.9-3.2,4.3-3.2l0,0
	c2.4,0,4.3,1.4,4.3,3.2V371.1z"/>
<circle class="st0" cx="81" cy="382.2" r="17.1"/>
<path class="st0" d="M81.1,0c-18,8.9-31.7,48.7-31.7,67.7s13.7,34.8,31.7,38.1V0z"/>
<path class="st1" d="M80.8,0c18,8.9,31.7,48.7,31.7,67.7s-13.7,34.8-31.7,38.1V0z"/>
<path class="st0" d="M160.8,106.6c-19-6.5-56.8,12-70.3,25.5c-13.4,13.4-14.9,34.3-4.6,49.4L160.8,106.6z"/>
<path class="st1" d="M160.6,106.4c6.5,19-12,56.8-25.5,70.3c-13.5,13.4-34.3,14.9-49.4,4.6L160.6,106.4z"/>
<path class="st0" d="M160.8,194.5c-19-6.5-56.8,12-70.3,25.5c-13.4,13.4-14.9,34.3-4.6,49.4L160.8,194.5z"/>
<path class="st1" d="M160.6,194.3c6.5,19-12,56.8-25.5,70.3c-13.5,13.4-34.3,14.9-49.4,4.6L160.6,194.3z"/>
<path class="st0" d="M147.5,295.6c-15.6-5.3-46.8,9.9-57.8,21c-11.1,11-12.3,28.2-3.8,40.6L147.5,295.6z"/>
<path class="st1" d="M147.3,295.5c5.3,15.6-9.9,46.7-20.9,57.8c-11.1,11-28.2,12.3-40.6,3.7L147.3,295.5z"/>
<path class="st0" d="M1.1,106.6c19-6.5,56.8,12,70.3,25.5c13.4,13.4,14.9,34.3,4.6,49.4L1.1,106.6z"/>
<path class="st1" d="M1.3,106.4c-6.5,19,12,56.8,25.5,70.3c13.5,13.4,34.2,14.9,49.4,4.6L1.3,106.4z"/>
<path class="st0" d="M1.1,194.5c19-6.5,56.8,12,70.3,25.5c13.4,13.4,14.9,34.3,4.6,49.4L1.1,194.5z"/>
<path class="st1" d="M1.3,194.3c-6.5,19,12,56.8,25.5,70.3c13.5,13.4,34.2,14.9,49.4,4.6L1.3,194.3z"/>
<path class="st0" d="M14.5,295.6c15.6-5.3,46.8,9.9,57.8,21c11.1,11,12.3,28.2,3.7,40.6L14.5,295.6z"/>
<path class="st1" d="M14.6,295.5c-5.3,15.6,9.9,46.7,20.9,57.8c11.1,11,28.1,12.3,40.6,3.7L14.6,295.5z"/>
</svg>
