<?xml version="1.0" encoding="utf-8"?>
<!-- Generator: Adobe Illustrator 22.1.0, SVG Export Plug-In . SVG Version: 6.00 Build 0)  -->
<svg version="1.1" id="Laag_5" xmlns="http://www.w3.org/2000/svg" xmlns:xlink="http://www.w3.org/1999/xlink" x="0px" y="0px"
	 viewBox="0 0 841.9 595.3" style="enable-background:new 0 0 841.9 595.3;" xml:space="preserve">
<style type="text/css">
	.st0{fill:#475862;}
	.st1{opacity:0.7;}
	.st2{fill:#55686B;}
</style>
<g>
	<path class="st0" d="M237.6,288.8c0,0,69.1-18.2,252.5-33.5c36.1-3,64.5,10.7,111.3,12.2c0,0-22.2-37.8-93.9-52
		S352.1,214.6,237.6,288.8z"/>
	<path class="st1" d="M439.4,227.4c0,0,21.5,1.1,29.5,29l-11.5,1C457.5,257.5,462.3,249.7,439.4,227.4z"/>
	<path class="st1" d="M413.1,221.4c0,0,12.6,0.6,25.6,36.1l-6.2,1.7C432.5,259.2,432.9,249.1,413.1,221.4z"/>
	<path class="st1" d="M395.7,235.6c0,0,18.1,0.7,24.8,22.7l-9.7,0.9C410.8,259.2,415,253.1,395.7,235.6z"/>
	<path class="st1" d="M366.8,240.3c0,0,16.5-4.8,26.3,22.6l-11.4,1.8C381.8,264.6,391.2,261.1,366.8,240.3z"/>
	<path class="st1" d="M342.5,240.9c0,0,5.3-9.7,20.6,24.9l-6.1,2.1C356.9,267.9,364.1,267.3,342.5,240.9z"/>
	<path class="st1" d="M325.5,250.2c0,0,11.4-3.9,19.5,17.6l-9.6,1.5C335.4,269.3,345.9,266.4,325.5,250.2z"/>
	<path class="st1" d="M515.5,226.4c0,0,21.3,3,26.8,31.5h-11.5C530.8,257.9,536.4,250.6,515.5,226.4z"/>
	<path class="st1" d="M489.9,218c0,0,12.5,1.7,22.3,38.3l-6.4,1.2C505.8,257.4,507.2,247.4,489.9,218z"/>
	<path class="st1" d="M471.3,230.6c0,0,18,2.3,22.7,24.8h-9.7C484.2,255.4,488.9,249.7,471.3,230.6z"/>
	<path class="st2" d="M701.3,272.2c3.7,11.9,14.3,14.7,24.3,17c15.7,3.6,31.7,5.9,47.6,8.7c11.5,2,23.3,3.1,34.4,7.3
		c1.7,0.6,3.3,1.4,4.9,2.2c6.2,3.2,7.5,9.6,3.2,15.5c-3.7,5.2-9.3,7.9-14.7,10.7c-2.2,1.1-4.7,1.8-6.9,2.9c-0.7,0.3-1.7,1.4-1.6,2
		c1.4,7.9-0.9,14.9-5.3,21.4c-0.2,0.2-0.1,0.6-0.3,1.1c3.7,1.5,7.6,2.6,11.1,4.5c5,2.7,10.2,5.3,14.6,8.8c7.3,5.7,7.7,13.6,1.5,20.5
		c-5.5,6.1-12.7,9.8-20,13.2c-18.6,8.5-38.3,13.9-58.1,18.9c-9.9,2.5-20,4.5-29.8,7.4c-4.8,1.4-9.4,3.9-13.8,6.5
		c-3.5,2-5.6,5.2-4.6,9.6c0.1,0.5-0.6,1.2-0.9,1.8c-0.6-0.4-1.4-0.8-1.6-1.3c-1.3-4.1,0-7.6,2.9-10.4c5.2-5.1,11.7-7.7,18.5-9.6
		c18.2-5,36.5-9.4,54.6-14.7c14.3-4.1,28.4-9.1,41-17.2c3.8-2.4,7.3-5.7,10.2-9.1c2.7-3.2,2.5-7.1-0.5-9.9
		c-3.9-3.5-8.2-6.7-12.8-9.2c-4.5-2.4-9.4-4-14.3-5.4c-2-0.6-4.4-0.5-6.4,0.1c-28.8,9.1-58.3,14.7-88.2,18
		c-21.5,2.4-43,4.5-64.6,5.9c-38.9,2.6-78,2.7-117,2.8c-39.3,0.1-78.4-2.3-117.6-4.6c-27.8-1.6-55.6-3.4-83.4-5.4
		c-30.5-2.2-61-4.5-91.4-7c-18.7-1.5-37.5-2.6-56.2-5.2c-18.8-2.5-37.1,0.1-55.4,3.5c-21,4-41.9,8.7-62.8,13.3
		c-2.8,0.6-3.3-0.7-3.9-2.6c-4.6-13.8-7-28.1-7.2-42.6c-0.3-18.4,2.1-36.5,7.9-54c0.8-2.5,1.8-4.9,2.9-7.2c0.3-0.6,1-1.3,1.6-1.4
		c3.8-0.6,5.8-2.9,6.6-7c7.5,2.1,14.8,4,22.1,6.3c26,8.1,52,16.2,77.9,24.6c4.3,1.4,8.2-0.1,12.1-0.8c24.1-4.4,48.2-9,72.2-13.7
		c2.7-0.5,225.4-58.4,369.6-21.3c24,6.2,48.5,10.5,72.5,16.7c30.1,7.8,59.7,17,87.6,31.1c9.4,4.7,18.4,9.9,25.4,18.1
		c0.5,0.6,1.8,1,2.5,0.7c7-2.4,13.7-5.2,19.3-10.3c0.9-0.9,1.7-2,2.4-3.1c2.5-4.2,1.6-8-2.8-10.1c-4.1-1.9-8.3-3.8-12.7-4.7
		c-13.9-2.8-27.8-5.2-41.7-7.7c-13.8-2.5-27.7-4.6-40.9-9.9c-5.1-2.1-10.2-4.5-13.2-9.5c-1-1.7-1.3-3.8-1.9-5.7
		C700.6,272.5,701,272.3,701.3,272.2z"/>
	<path class="st0" d="M634.2,403.6c-6.8,4-13.4,7.8-19.8,11.9c-11.5,7.4-23,14.8-32.2,25.2c-0.5,0.6-1.6,1.1-2.3,0.9
		c-8.1-1.9-15.7-5-21.4-11.5c-5.5-6.4-6.1-13.7-3.9-21.5c0-0.1,0.1-0.2,0.1-0.3c4-12.6,4.4-12.8,17.4-13.4
		c14.2-0.6,28.3-1.6,42.5-2.4c3.8-0.2,7.6-0.5,11.4-0.6c0.9,0,2.2,0.6,2.6,1.3C630.7,396.6,632.3,400,634.2,403.6z"/>
	<path class="st0" d="M149.9,302.6C124,294.3,98,286.2,72,278.1c-7.3-2.3-14.6-4.2-22.1-6.3c-0.8,4-2.8,6.4-6.6,7
		c-0.6,0.1-1.3,0.8-1.6,1.4c-1.1,2.4-2.1,4.8-2.9,7.2c-5.9,17.5-8.2,35.6-7.9,54c0.2,14.6,2.6,28.8,7.2,42.6c0.6,2,1.1,3.2,3.9,2.6
		c20.9-4.6,41.8-9.4,62.8-13.3c16.1-3,32.2-5.4,48.7-4.2v-66C152.4,303.2,151.2,303.1,149.9,302.6z"/>
	<circle cx="711.5" cy="360.8" r="7.5"/>
	<g class="st1">
		<polygon points="153.6,318.9 47,297.2 153.6,310 		"/>
	</g>
	<g class="st1">
		<polygon points="153.6,331.6 44.3,322.4 153.5,321.8 		"/>
	</g>
	<g class="st1">
		<polygon points="153.8,356 44.2,356.2 153.6,346.1 		"/>
	</g>
	<g class="st1">
		<polygon points="153.6,341.7 44.3,335 153.6,334.5 		"/>
	</g>
	<g class="st1">
		<path d="M630.7,397.2c-28,8.2-40.7,8.3-68.9,2c27.9,4.3,40.1,3.7,66.9-6C629.3,394.5,630.1,395.8,630.7,397.2z"/>
	</g>
	<path class="st1" d="M622.5,410.1c-26,8-37.8,7.9-64.1,1.4c26,4.5,37.3,4,62.1-5.4C621.1,407.5,621.9,408.7,622.5,410.1z"/>
	<g class="st1">
		<path d="M625.7,389.3l-0.4-22.1L625,345c-0.1-7.4-0.3-14.7-0.2-22.1c0.1-3.7,0.1-7.4,0.3-11.1l0.2-5.5c0.1-1.8,0.2-3.7,0.4-5.5
			h0.2c0.2,1.8,0.2,3.7,0.4,5.5l0.2,5.5c0.2,3.7,0.2,7.4,0.3,11.1c0.1,7.4-0.1,14.7-0.2,22.1l-0.3,22.1l-0.4,22.1H625.7z"/>
	</g>
</g>
</svg>
