<?xml version="1.0" encoding="utf-8"?>
<!-- Generator: Adobe Illustrator 22.1.0, SVG Export Plug-In . SVG Version: 6.00 Build 0)  -->
<svg version="1.1" id="Layer_1" xmlns="http://www.w3.org/2000/svg" xmlns:xlink="http://www.w3.org/1999/xlink" x="0px" y="0px"
	 viewBox="0 0 162 399.2" style="enable-background:new 0 0 162 399.2;" xml:space="preserve">
<style type="text/css">
	.st0{fill:#7DA81D;}
	.st1{fill:#469315;}
</style>
<path class="st0" d="M85.3,373.2c0,0.6-1.9,1.1-4.3,1.1l0,0c-2.4,0-4.3-0.5-4.3-1.1v-89.7c0-0.6,1.9-1,4.3-1l0,0
	c2.4,0,4.3,0.5,4.3,1V373.2z"/>
<circle class="st0" cx="81" cy="382.1" r="17.1"/>
<path class="st0" d="M81.1,180.6c-18,8.9-31.7,48.7-31.7,67.7s13.7,34.8,31.7,38.1V180.6z"/>
<path class="st1" d="M80.8,180.6c18,8.9,31.7,48.7,31.7,67.7s-13.7,34.8-31.7,38.1V180.6z"/>
<path class="st0" d="M147.5,295.5c-15.6-5.3-46.7,9.9-57.8,21c-11.1,11-12.3,28.2-3.8,40.6L147.5,295.5z"/>
<path class="st1" d="M147.3,295.4c5.3,15.6-9.9,46.7-20.9,57.8c-11.1,11-28.2,12.3-40.6,3.7L147.3,295.4z"/>
<path class="st0" d="M14.5,295.5c15.6-5.3,46.8,9.9,57.8,21c11.1,11,12.3,28.2,3.7,40.6L14.5,295.5z"/>
<path class="st1" d="M14.6,295.4c-5.3,15.6,9.9,46.7,20.9,57.8c11.1,11,28.1,12.3,40.6,3.7L14.6,295.4z"/>
</svg>
