<svg id="Layer_1" data-name="Layer 1" xmlns="http://www.w3.org/2000/svg" viewBox="0 0 188.41 164.87"><defs><style>.cls-1{fill:#409800;}.cls-2{fill:#407800;}</style></defs><title>algenzaadjes</title><path class="cls-1" d="M108,103.69A81.3,81.3,0,0,1,94.43,121c-12.17,12.18-25,19.11-28.6,15.49-1.07-1.07-1.22-2.94-.58-5.37h0c1.52-5.77,7.5-14.66,16.07-23.23,12.18-12.18,25-19.11,28.6-15.49C111.76,94.2,110.87,98.4,108,103.69Z" transform="translate(-3.81 -12.61)"/><path class="cls-2" d="M108,103.69A81.3,81.3,0,0,1,94.43,121c-12.17,12.18-25,19.11-28.6,15.49-1.07-1.07-1.22-2.94-.58-5.37h0A177.29,177.29,0,0,0,108,103.69Z" transform="translate(-3.81 -12.61)"/><path class="cls-1" d="M82.55,85.77a109.32,109.32,0,0,1-12,22.29c-10.8,15.72-22.16,24.67-25.37,20-.95-1.38-1.08-3.8-.52-6.93h0c1.35-7.45,6.65-18.92,14.26-30,10.8-15.72,22.16-24.67,25.37-20C85.91,73.52,85.13,78.95,82.55,85.77Z" transform="translate(-3.81 -12.61)"/><path class="cls-2" d="M82.55,85.77a109.32,109.32,0,0,1-12,22.29c-10.8,15.72-22.16,24.67-25.37,20-.95-1.38-1.08-3.8-.52-6.93h0S64.43,109,82.55,85.77Z" transform="translate(-3.81 -12.61)"/><path class="cls-1" d="M145.25,81.51a81.3,81.3,0,0,1-5.26,21.3c-6.11,16.1-14.94,27.68-19.73,25.86-1.41-.54-2.32-2.19-2.73-4.66h0c-1-5.88.83-16.44,5.13-27.78,6.11-16.1,14.94-27.68,19.73-25.86C144.81,71.29,145.73,75.49,145.25,81.51Z" transform="translate(-3.81 -12.61)"/><path class="cls-2" d="M145.25,81.51a81.3,81.3,0,0,1-5.26,21.3c-6.11,16.1-14.94,27.68-19.73,25.86-1.41-.54-2.32-2.19-2.73-4.66h0A177.29,177.29,0,0,0,145.25,81.51Z" transform="translate(-3.81 -12.61)"/><path class="cls-1" d="M89.55,137.23a50.77,50.77,0,0,1,13.6-1.66c10.75,0,19.47,2.57,19.48,5.76,0,.94-.76,1.84-2.11,2.63h0c-3.22,1.88-9.78,3.17-17.35,3.18-10.75,0-19.47-2.57-19.48-5.76C83.69,139.76,85.93,138.29,89.55,137.23Z" transform="translate(-3.81 -12.61)"/><path class="cls-2" d="M89.55,137.23a50.77,50.77,0,0,1,13.6-1.66c10.75,0,19.47,2.57,19.48,5.76,0,.94-.76,1.84-2.11,2.63h0A110.71,110.71,0,0,0,89.55,137.23Z" transform="translate(-3.81 -12.61)"/><path class="cls-1" d="M96.82,55.2a54.19,54.19,0,0,1,9.48,11.14c6.33,9.57,9.16,18.86,6.31,20.74-.84.56-2.09.4-3.59-.33h0c-3.57-1.76-8.57-6.85-13-13.59-6.33-9.57-9.16-18.86-6.31-20.74C91.13,51.46,93.76,52.6,96.82,55.2Z" transform="translate(-3.81 -12.61)"/><path class="cls-2" d="M96.82,55.2a54.19,54.19,0,0,1,9.48,11.14c6.33,9.57,9.16,18.86,6.31,20.74-.84.56-2.09.4-3.59-.33h0A118.17,118.17,0,0,0,96.82,55.2Z" transform="translate(-3.81 -12.61)"/><path class="cls-1" d="M116.71,171.72a81.3,81.3,0,0,1-21.34,5.1c-17.11,2-31.45-.56-32-5.65-.17-1.5.88-3.06,2.88-4.57h0c4.78-3.57,15-6.81,27-8.2,17.11-2,31.45.56,32,5.65C125.58,166.64,122.27,169.38,116.71,171.72Z" transform="translate(-3.81 -12.61)"/><path class="cls-2" d="M116.71,171.72a81.3,81.3,0,0,1-21.34,5.1c-17.11,2-31.45-.56-32-5.65-.17-1.5.88-3.06,2.88-4.57h0A177.29,177.29,0,0,0,116.71,171.72Z" transform="translate(-3.81 -12.61)"/><path class="cls-1" d="M174.72,92.56a139.39,139.39,0,0,1,5.53,31.8c1.57,24.27-2.76,42.19-9.67,40-2-.64-4.08-3-6-6.54h0c-4.52-8.53-8.24-24.2-9.34-41.29-1.56-24.27,2.76-42.19,9.67-40C168.43,77.62,171.92,83.68,174.72,92.56Z" transform="translate(-3.81 -12.61)"/><path class="cls-2" d="M174.72,92.56a139.39,139.39,0,0,1,5.53,31.8c1.57,24.27-2.76,42.19-9.67,40-2-.64-4.08-3-6-6.54h0S174.84,130.08,174.72,92.56Z" transform="translate(-3.81 -12.61)"/><path class="cls-1" d="M42.16,163.3a50.77,50.77,0,0,1,9.45-9.92c8.3-6.84,16.68-10.38,18.71-7.91.6.73.58,1.9,0,3.37h0c-1.29,3.49-5.54,8.66-11.39,13.47-8.3,6.84-16.68,10.38-18.71,7.91C39.23,169,40,166.41,42.16,163.3Z" transform="translate(-3.81 -12.61)"/><path class="cls-2" d="M42.16,163.3a50.77,50.77,0,0,1,9.45-9.92c8.3-6.84,16.68-10.38,18.71-7.91.6.73.58,1.9,0,3.37h0A110.71,110.71,0,0,0,42.16,163.3Z" transform="translate(-3.81 -12.61)"/><path class="cls-1" d="M143.58,132.3a54.19,54.19,0,0,1,2.36,14.43c.48,11.47-1.89,20.88-5.3,21-1,0-2-.73-2.9-2.14h0c-2.14-3.35-3.81-10.29-4.14-18.36-.48-11.47,1.89-20.88,5.3-21C140.63,126.16,142.3,128.49,143.58,132.3Z" transform="translate(-3.81 -12.61)"/><path class="cls-2" d="M143.58,132.3a54.19,54.19,0,0,1,2.36,14.43c.48,11.47-1.89,20.88-5.3,21-1,0-2-.73-2.9-2.14h0A118.17,118.17,0,0,0,143.58,132.3Z" transform="translate(-3.81 -12.61)"/><path class="cls-1" d="M27.23,121.18a54.19,54.19,0,0,1,9.48,11.14c6.33,9.57,9.16,18.86,6.31,20.74-.84.56-2.09.4-3.59-.33h0c-3.57-1.76-8.57-6.85-13-13.59-6.33-9.57-9.16-18.86-6.31-20.74C21.53,117.44,24.16,118.58,27.23,121.18Z" transform="translate(-3.81 -12.61)"/><path class="cls-2" d="M27.23,121.18a54.19,54.19,0,0,1,9.48,11.14c6.33,9.57,9.16,18.86,6.31,20.74-.84.56-2.09.4-3.59-.33h0A118.17,118.17,0,0,0,27.23,121.18Z" transform="translate(-3.81 -12.61)"/><path class="cls-1" d="M23.54,107.21a81.3,81.3,0,0,1-12-18.39C4,73.37,1.54,59,6.14,56.76c1.36-.67,3.18-.2,5.27,1.18h0c5,3.3,11.45,11.83,16.8,22.71,7.59,15.46,10,29.81,5.43,32.07C31.3,113.87,27.61,111.67,23.54,107.21Z" transform="translate(-3.81 -12.61)"/><path class="cls-2" d="M23.54,107.21a81.3,81.3,0,0,1-12-18.39C4,73.37,1.54,59,6.14,56.76c1.36-.67,3.18-.2,5.27,1.18h0A177.29,177.29,0,0,0,23.54,107.21Z" transform="translate(-3.81 -12.61)"/><path class="cls-1" d="M50.58,26.24A117.23,117.23,0,0,1,55.23,53C56.54,73.4,52.9,88.47,47.1,86.66c-1.72-.53-3.43-2.49-5-5.5h0c-3.8-7.17-6.93-20.36-7.86-34.73C32.9,26,36.54,10.95,42.34,12.76,45.29,13.68,48.22,18.77,50.58,26.24Z" transform="translate(-3.81 -12.61)"/><path class="cls-2" d="M50.58,26.24A117.23,117.23,0,0,1,55.23,53C56.54,73.4,52.9,88.47,47.1,86.66c-1.72-.53-3.43-2.49-5-5.5h0S50.68,57.8,50.58,26.24Z" transform="translate(-3.81 -12.61)"/><path class="cls-1" d="M159.15,58a50.77,50.77,0,0,1,13.6-1.66c10.75,0,19.47,2.57,19.48,5.76,0,.94-.76,1.84-2.11,2.63h0c-3.22,1.88-9.78,3.17-17.35,3.18-10.75,0-19.47-2.57-19.48-5.76C153.29,60.51,155.53,59,159.15,58Z" transform="translate(-3.81 -12.61)"/><path class="cls-2" d="M159.15,58a50.77,50.77,0,0,1,13.6-1.66c10.75,0,19.47,2.57,19.48,5.76,0,.94-.76,1.84-2.11,2.63h0A110.71,110.71,0,0,0,159.15,58Z" transform="translate(-3.81 -12.61)"/><path class="cls-1" d="M116.71,41a81.3,81.3,0,0,1-21.34,5.1c-17.11,2-31.45-.56-32-5.65-.17-1.5.88-3.06,2.88-4.57h0c4.78-3.57,15-6.81,27-8.2,17.11-2,31.45.56,32,5.65C125.58,35.9,122.27,38.64,116.71,41Z" transform="translate(-3.81 -12.61)"/><path class="cls-2" d="M116.71,41a81.3,81.3,0,0,1-21.34,5.1c-17.11,2-31.45-.56-32-5.65-.17-1.5.88-3.06,2.88-4.57h0A177.29,177.29,0,0,0,116.71,41Z" transform="translate(-3.81 -12.61)"/><path class="cls-1" d="M147.84,49.66a54.19,54.19,0,0,1-10.25,10.43c-9,7.16-18,10.81-20.09,8.14-.63-.79-.59-2,0-3.6h0c1.43-3.71,6.05-9.15,12.37-14.2,9-7.16,18-10.81,20.09-8.14C151.05,43.65,150.15,46.37,147.84,49.66Z" transform="translate(-3.81 -12.61)"/><path class="cls-2" d="M147.84,49.66a54.19,54.19,0,0,1-10.25,10.43c-9,7.16-18,10.81-20.09,8.14-.63-.79-.59-2,0-3.6h0A118.17,118.17,0,0,0,147.84,49.66Z" transform="translate(-3.81 -12.61)"/></svg>