<svg id="Laag_5" data-name="Laag 5" xmlns="http://www.w3.org/2000/svg" viewBox="0 0 787.66 241.73"><defs><style>.cls-1{fill:#475862;}.cls-2,.cls-4{opacity:0.7;}.cls-2{isolation:isolate;}.cls-3{fill:#55686b;}</style></defs><title>vis</title><path class="cls-1" d="M341.71,215.5c-71.7,14.2-93.9,52-93.9,52,46.8-1.5,75.2-15.2,111.3-12.2,183.4,15.3,252.5,33.5,252.5,33.5C497.11,214.6,413.41,201.3,341.71,215.5Z" transform="translate(-30.78 -210.47)"/><path class="cls-2" d="M391.81,257.4l-11.5-1c8-27.9,29.5-29,29.5-29C386.91,249.7,391.71,257.5,391.81,257.4Z" transform="translate(-30.78 -210.47)"/><path class="cls-2" d="M416.71,259.2l-6.2-1.7c13-35.5,25.6-36.1,25.6-36.1C416.31,249.1,416.71,259.2,416.71,259.2Z" transform="translate(-30.78 -210.47)"/><path class="cls-2" d="M438.41,259.2l-9.7-.9c6.7-22,24.8-22.7,24.8-22.7C434.21,253.1,438.41,259.2,438.41,259.2Z" transform="translate(-30.78 -210.47)"/><path class="cls-2" d="M467.51,264.7l-11.4-1.8c9.8-27.4,26.3-22.6,26.3-22.6C458,261.1,467.41,264.6,467.51,264.7Z" transform="translate(-30.78 -210.47)"/><path class="cls-2" d="M492.21,267.9l-6.1-2.1c15.3-34.6,20.6-24.9,20.6-24.9C485.11,267.3,492.31,267.9,492.21,267.9Z" transform="translate(-30.78 -210.47)"/><path class="cls-2" d="M513.81,269.3l-9.6-1.5c8.1-21.5,19.5-17.6,19.5-17.6C503.31,266.4,513.81,269.3,513.81,269.3Z" transform="translate(-30.78 -210.47)"/><path class="cls-2" d="M318.41,257.9h-11.5c5.5-28.5,26.8-31.5,26.8-31.5C312.81,250.6,318.41,257.9,318.41,257.9Z" transform="translate(-30.78 -210.47)"/><path class="cls-2" d="M343.41,257.5l-6.4-1.2c9.8-36.6,22.3-38.3,22.3-38.3C342,247.4,343.41,257.4,343.41,257.5Z" transform="translate(-30.78 -210.47)"/><path class="cls-2" d="M364.91,255.4h-9.7c4.7-22.5,22.7-24.8,22.7-24.8C360.31,249.7,365,255.4,364.91,255.4Z" transform="translate(-30.78 -210.47)"/><path class="cls-3" d="M149,272.7c-.6,1.9-.9,4-1.9,5.7-3,5-8.1,7.4-13.2,9.5-13.2,5.3-27.1,7.4-40.9,9.9s-27.8,4.9-41.7,7.7a58.86,58.86,0,0,0-12.7,4.7c-4.4,2.1-5.3,5.9-2.8,10.1a18.31,18.31,0,0,0,2.4,3.1c5.6,5.1,12.3,7.9,19.3,10.3A2.61,2.61,0,0,0,60,333c7-8.2,16-13.4,25.4-18.1,27.9-14.1,57.5-23.3,87.6-31.1,24-6.2,48.5-10.5,72.5-16.7,144.2-37.1,366.9,20.8,369.6,21.3q36,7.05,72.2,13.7c3.9.7,7.8,2.2,12.1.8,25.9-8.4,51.9-16.5,77.9-24.6,7.3-2.3,14.6-4.2,22.1-6.3.8,4.1,2.8,6.4,6.6,7a2.73,2.73,0,0,1,1.6,1.4,57,57,0,0,1,2.9,7.2,162.17,162.17,0,0,1,7.9,54,140.49,140.49,0,0,1-7.2,42.6c-.6,1.9-1.1,3.2-3.9,2.6-20.9-4.6-41.8-9.3-62.8-13.3-18.3-3.4-36.6-6-55.4-3.5s-37.5,3.7-56.2,5.2q-45.6,3.75-91.4,7-41.7,3-83.4,5.4c-39.2,2.3-78.3,4.7-117.6,4.6-39-.1-78.1-.2-117-2.8-21.6-1.4-43.1-3.5-64.6-5.9-29.9-3.3-59.4-8.9-88.2-18a11.61,11.61,0,0,0-6.4-.1A72.53,72.53,0,0,0,50,370.8a68.09,68.09,0,0,0-12.8,9.2c-3,2.8-3.2,6.7-.5,9.9a46.55,46.55,0,0,0,10.2,9.1c12.6,8.1,26.7,13.1,41,17.2,18.1,5.3,36.4,9.7,54.6,14.7,6.8,1.9,13.3,4.5,18.5,9.6,2.9,2.8,4.2,6.3,2.9,10.4-.2.5-1,.9-1.6,1.3-.3-.6-1-1.3-.9-1.8,1-4.4-1.1-7.6-4.6-9.6a62,62,0,0,0-13.8-6.5c-9.8-2.9-19.9-4.9-29.8-7.4-19.8-5-39.5-10.4-58.1-18.9-7.3-3.4-14.5-7.1-20-13.2-6.2-6.9-5.8-14.8,1.5-20.5,4.4-3.5,9.6-6.1,14.6-8.8,3.5-1.9,7.4-3,11.1-4.5-.2-.5-.1-.9-.3-1.1-4.4-6.5-6.7-13.5-5.3-21.4.1-.6-.9-1.7-1.6-2-2.2-1.1-4.7-1.8-6.9-2.9-5.4-2.8-11-5.5-14.7-10.7-4.3-5.9-3-12.3,3.2-15.5a43.09,43.09,0,0,1,4.9-2.2c11.1-4.2,22.9-5.3,34.4-7.3,15.9-2.8,31.9-5.1,47.6-8.7,10-2.3,20.6-5.1,24.3-17A9.74,9.74,0,0,1,149,272.7Z" transform="translate(-30.78 -210.47)"/><path class="cls-1" d="M220.61,393.2a3.47,3.47,0,0,1,2.6-1.3c3.8.1,7.6.4,11.4.6,14.2.8,28.3,1.8,42.5,2.4,13,.6,13.4.8,17.4,13.4,0,.1.1.2.1.3,2.2,7.8,1.6,15.1-3.9,21.5-5.7,6.5-13.3,9.6-21.4,11.5a2.64,2.64,0,0,1-2.3-.9c-9.2-10.4-20.7-17.8-32.2-25.2-6.4-4.1-13-7.9-19.8-11.9C216.91,400,218.51,396.6,220.61,393.2Z" transform="translate(-30.78 -210.47)"/><path class="cls-1" d="M695.71,303.1v66c16.5-1.2,32.6,1.2,48.7,4.2,21,3.9,41.9,8.7,62.8,13.3,2.8.6,3.3-.6,3.9-2.6a140,140,0,0,0,7.2-42.6c.3-18.4-2-36.5-7.9-54a72.21,72.21,0,0,0-2.9-7.2,2.73,2.73,0,0,0-1.6-1.4c-3.8-.6-5.8-3-6.6-7-7.5,2.1-14.8,4-22.1,6.3-26,8.1-52,16.2-77.9,24.5A7.85,7.85,0,0,1,695.71,303.1Z" transform="translate(-30.78 -210.47)"/><circle cx="106.94" cy="140.33" r="7.5"/><g class="cls-4"><polygon points="664.84 99.53 771.44 86.73 664.84 108.43 664.84 99.53"/></g><g class="cls-4"><polygon points="664.94 111.33 774.14 111.93 664.84 121.13 664.94 111.33"/></g><g class="cls-4"><polygon points="664.84 135.63 774.24 145.73 664.64 145.53 664.84 135.63"/></g><g class="cls-4"><polygon points="664.84 124.03 774.14 124.53 664.84 131.23 664.84 124.03"/></g><g class="cls-4"><path d="M220.51,393.2c26.8,9.7,39,10.3,66.9,6-28.2,6.3-40.9,6.2-68.9-2C219.11,395.8,219.91,394.5,220.51,393.2Z" transform="translate(-30.78 -210.47)"/></g><path class="cls-2" d="M228.71,406.1c24.8,9.4,36.1,9.9,62.1,5.4-26.3,6.5-38.1,6.6-64.1-1.4C227.31,408.7,228.11,407.5,228.71,406.1Z" transform="translate(-30.78 -210.47)"/><g class="cls-4"><path d="M223.51,389.2h-.2l-.4-22.1-.3-22.1c-.1-7.4-.3-14.7-.2-22.1.1-3.7.1-7.4.3-11.1l.2-5.5c.2-1.8.2-3.7.4-5.5h.2c.2,1.8.3,3.7.4,5.5l.2,5.5c.2,3.7.2,7.4.3,11.1.1,7.4-.1,14.7-.2,22.1l-.3,22.2-.4,22.1Z" transform="translate(-30.78 -210.47)"/></g></svg>