<svg id="Layer_1" data-name="Layer 1" xmlns="http://www.w3.org/2000/svg" viewBox="0 0 186.59 141.38"><defs><style>.cls-1{fill:#e7c88a;}.cls-2{fill:#ba8c43;}.cls-3{fill:#d9cc4f;}.cls-4{fill:#a39428;}.cls-5{fill:#ca7c3b;}.cls-6{fill:#a35821;}</style></defs><title>vissenvoer</title><path class="cls-1" d="M75,127.58s8.93,17.12-6.76,13q-1.22-.32-2.45-.67c-15-4.3-30.88-12.11-30.88-12.11s3.16-19.46,8-11.86c1.27,2,4.1,3.76,7.59,5.25C60.18,125.4,75,127.58,75,127.58Z" transform="translate(-7.01 -27.53)"/><path class="cls-2" d="M75,127.58s8.93,17.12-6.76,13q-1.22-.32-2.45-.67a214,214,0,0,0-15.31-18.71C60.18,125.4,75,127.58,75,127.58Z" transform="translate(-7.01 -27.53)"/><path class="cls-3" d="M53.52,109s4.34,7.82-4.64,12.73a6.6,6.6,0,0,1-4.36.38c-12.21-2.25-37-24.42-37-24.42S3.74,84.1,17.05,88.16l.59.18C31,92.71,53.52,109,53.52,109Z" transform="translate(-7.01 -27.53)"/><path class="cls-4" d="M53.52,109s4.34,7.82-4.64,12.73a6.6,6.6,0,0,1-4.36.38A244.16,244.16,0,0,0,17.64,88.35C31,92.71,53.52,109,53.52,109Z" transform="translate(-7.01 -27.53)"/><path class="cls-5" d="M93.3,39.45s5.79,5.79-2,18.82c0,0-26.05-1.16-34.16-2.89s-15.92-14.76-2-17.66a41.5,41.5,0,0,1,4.18-.63C73.35,35.65,93.3,39.45,93.3,39.45Z" transform="translate(-7.01 -27.53)"/><path class="cls-6" d="M93.3,39.45s5.79,5.79-2,18.82a224.92,224.92,0,0,0-32-21.18C73.35,35.65,93.3,39.45,93.3,39.45Z" transform="translate(-7.01 -27.53)"/><path class="cls-3" d="M86.68,77.49S91,85.31,82,90.23a6.6,6.6,0,0,1-4.36.38c-12.22-2.24-37-24.41-37-24.41s-3.76-13.61,9.55-9.55l.59.18C64.19,61.18,86.68,77.49,86.68,77.49Z" transform="translate(-7.01 -27.53)"/><path class="cls-4" d="M86.68,77.49S91,85.31,82,90.23a6.6,6.6,0,0,1-4.36.38,244.16,244.16,0,0,0-26.9-33.78C64.19,61.18,86.68,77.49,86.68,77.49Z" transform="translate(-7.01 -27.53)"/><path class="cls-3" d="M181.62,105.14s8.45-2.93,11.75,6.76a6.6,6.6,0,0,1-.38,4.36c-4.31,11.65-30.42,32.28-30.42,32.28s-14,1.36-7.77-11.05l.28-.55C161.69,124.49,181.62,105.14,181.62,105.14Z" transform="translate(-7.01 -27.53)"/><path class="cls-4" d="M181.62,105.14s8.45-2.93,11.75,6.76a6.6,6.6,0,0,1-.38,4.36,244.16,244.16,0,0,0-37.9,20.68C161.69,124.49,181.62,105.14,181.62,105.14Z" transform="translate(-7.01 -27.53)"/><path class="cls-5" d="M89.88,107.7s-5.79,5.79-18.82-2c0,0,1.16-26.05,2.89-34.16s14.76-15.92,17.66-2a41.5,41.5,0,0,1,.63,4.18C93.68,87.76,89.88,107.7,89.88,107.7Z" transform="translate(-7.01 -27.53)"/><path class="cls-6" d="M89.88,107.7s-5.79,5.79-18.82-2a224.92,224.92,0,0,0,21.18-32C93.68,87.76,89.88,107.7,89.88,107.7Z" transform="translate(-7.01 -27.53)"/><path class="cls-3" d="M80.85,131.39s-8-4-3.36-13.13a6.6,6.6,0,0,1,3.38-2.77c11.35-5,44.35-.72,44.35-.72s10.78,9.12-2.5,13.28l-.59.18C108.62,132.18,80.85,131.39,80.85,131.39Z" transform="translate(-7.01 -27.53)"/><path class="cls-4" d="M80.85,131.39s-8-4-3.36-13.13a6.6,6.6,0,0,1,3.38-2.77,244.16,244.16,0,0,0,41.26,12.73C108.62,132.18,80.85,131.39,80.85,131.39Z" transform="translate(-7.01 -27.53)"/><path class="cls-1" d="M61,108.12s-14.76,12.45-14.18-3.76q0-1.26.12-2.54C47.89,86.22,52.05,69,52.05,69s19.68-1.16,13.32,5.21c-1.68,1.68-2.77,4.82-3.48,8.55C59.92,93.2,61,108.12,61,108.12Z" transform="translate(-7.01 -27.53)"/><path class="cls-2" d="M61,108.12s-14.76,12.45-14.18-3.76q0-1.26.12-2.54a214,214,0,0,0,14.93-19C59.92,93.2,61,108.12,61,108.12Z" transform="translate(-7.01 -27.53)"/><path class="cls-1" d="M186.73,67s8.93,17.12-6.76,13q-1.22-.32-2.45-.67c-15-4.3-30.88-12.11-30.88-12.11s3.16-19.46,8-11.86c1.27,2,4.1,3.76,7.59,5.25C171.94,64.81,186.73,67,186.73,67Z" transform="translate(-7.01 -27.53)"/><path class="cls-2" d="M186.73,67s8.93,17.12-6.76,13q-1.22-.32-2.45-.67a214,214,0,0,0-15.31-18.71C171.94,64.81,186.73,67,186.73,67Z" transform="translate(-7.01 -27.53)"/><path class="cls-5" d="M160.81,70.28s-.26,8.18-15.11,11.39c0,0-17-19.8-21.25-26.9s-.12-21.71,11.5-13.56a41.5,41.5,0,0,1,3.32,2.62C149.94,53.13,160.81,70.28,160.81,70.28Z" transform="translate(-7.01 -27.53)"/><path class="cls-6" d="M160.81,70.28s-.26,8.18-15.11,11.39a224.92,224.92,0,0,0-6.44-37.84C149.94,53.13,160.81,70.28,160.81,70.28Z" transform="translate(-7.01 -27.53)"/><path class="cls-5" d="M115.3,136.52s6.94,4.35,2.23,18.79c0,0-25.65,4.69-33.94,4.81s-18.82-10.83-5.92-16.76a41.5,41.5,0,0,1,3.93-1.55C95,137.27,115.3,136.52,115.3,136.52Z" transform="translate(-7.01 -27.53)"/><path class="cls-6" d="M115.3,136.52s6.94,4.35,2.23,18.79a224.92,224.92,0,0,0-35.93-13.5C95,137.27,115.3,136.52,115.3,136.52Z" transform="translate(-7.01 -27.53)"/><path class="cls-5" d="M153.16,126s-7.39,3.52-17.05-8.2c0,0,9.81-24.16,14.16-31.22s19.24-10.06,17.32,4a41.5,41.5,0,0,1-.8,4.15C163.41,108.53,153.16,126,153.16,126Z" transform="translate(-7.01 -27.53)"/><path class="cls-6" d="M153.16,126s-7.39,3.52-17.05-8.2a224.92,224.92,0,0,0,30.67-23.07C163.41,108.53,153.16,126,153.16,126Z" transform="translate(-7.01 -27.53)"/><path class="cls-3" d="M130.26,65.16s.6,8.92-9.62,9.55a6.6,6.6,0,0,1-4.1-1.51c-10.1-7.23-23.1-37.86-23.1-37.86s2.4-13.91,12.71-4.57l.45.42C116.87,40.82,130.26,65.16,130.26,65.16Z" transform="translate(-7.01 -27.53)"/><path class="cls-4" d="M130.26,65.16s.6,8.92-9.62,9.55a6.6,6.6,0,0,1-4.1-1.51,244.16,244.16,0,0,0-9.93-42C116.87,40.82,130.26,65.16,130.26,65.16Z" transform="translate(-7.01 -27.53)"/><path class="cls-5" d="M111.2,124.13s-8.19,0-11.87-14.74c0,0,19.24-17.6,26.2-22.11s21.7-.82,13.92,11.05a41.5,41.5,0,0,1-2.51,3.4C128,112.72,111.2,124.13,111.2,124.13Z" transform="translate(-7.01 -27.53)"/><path class="cls-6" d="M111.2,124.13s-8.19,0-11.87-14.74a224.92,224.92,0,0,0,37.61-7.65C128,112.72,111.2,124.13,111.2,124.13Z" transform="translate(-7.01 -27.53)"/><path class="cls-3" d="M101.37,96.56s-8.83-1.4-7.18-11.5a6.6,6.6,0,0,1,2.39-3.67c9.29-8.24,42-14.14,42-14.14s13,5.42,1.64,13.41l-.51.35C128.07,88.9,101.37,96.56,101.37,96.56Z" transform="translate(-7.01 -27.53)"/><path class="cls-4" d="M101.37,96.56s-8.83-1.4-7.18-11.5a6.6,6.6,0,0,1,2.39-3.67A244.16,244.16,0,0,0,139.75,81C128.07,88.9,101.37,96.56,101.37,96.56Z" transform="translate(-7.01 -27.53)"/><path class="cls-1" d="M158.66,157.68S157,176.92,146,165q-.86-.92-1.71-1.88c-10.38-11.68-19.58-26.78-19.58-26.78s13.1-14.74,13.1-5.73c0,2.37,1.45,5.37,3.59,8.5C147.34,147.91,158.66,157.68,158.66,157.68Z" transform="translate(-7.01 -27.53)"/><path class="cls-2" d="M158.66,157.68S157,176.92,146,165q-.86-.92-1.71-1.88a214,214,0,0,0-2.89-24C147.34,147.91,158.66,157.68,158.66,157.68Z" transform="translate(-7.01 -27.53)"/></svg>